HIERARCHY
ROOT Hips
{
	OFFSET 51.743301 -9.516694 85.688797
	CHANNELS 6 Xposition Yposition Zposition Xrotation Yrotation Zrotation
	JOINT spine
	{
		OFFSET 0.000000 -0.367607 6.392601
		CHANNELS 3 Xrotation Yrotation Zrotation
		JOINT spine1
		{
			OFFSET 0.000000 -0.000001 9.176109
			CHANNELS 3 Xrotation Yrotation Zrotation
			JOINT spine2
			{
				OFFSET 0.000000 -0.000002 8.792381
				CHANNELS 3 Xrotation Yrotation Zrotation
				JOINT Neck
				{
					OFFSET 0.000000 -1.076243 22.573708
					CHANNELS 3 Xrotation Yrotation Zrotation
					JOINT Head
					{
						OFFSET 0.000000 -0.000001 6.820114
						CHANNELS 3 Xrotation Yrotation Zrotation
						End Site
						{
							OFFSET 0.000000 5.444268 16.508499
						}
					}
				}
				JOINT RightShoulder
				{
					OFFSET -3.702209 0.515507 9.495087
					CHANNELS 3 Xrotation Yrotation Zrotation
					JOINT RightArm
					{
						OFFSET 0.000000 -0.000003 12.453697
						CHANNELS 3 Xrotation Yrotation Zrotation
						JOINT RightArmRoll
						{
							OFFSET 0.000000 -0.000001 6.286865
							CHANNELS 3 Xrotation Yrotation Zrotation
							JOINT RightForeArm
							{
								OFFSET 0.000000 -0.000003 18.311401
								CHANNELS 3 Xrotation Yrotation Zrotation
								JOINT RightForeArmRoll
								{
									OFFSET 0.000000 -0.000001 7.054825
									CHANNELS 3 Xrotation Yrotation Zrotation
									JOINT RightHand
									{
										OFFSET 0.000000 -0.000002 14.157501
										CHANNELS 3 Xrotation Yrotation Zrotation
										End Site
										{
											OFFSET 0.000000 0.000000 0.100006
										}
									}
								}
							}
						}
					}
				}
				JOINT LeftShoulder
				{
					OFFSET 3.702209 0.515507 9.495087
					CHANNELS 3 Xrotation Yrotation Zrotation
					JOINT LeftArm
					{
						OFFSET 0.000000 -0.000003 12.453697
						CHANNELS 3 Xrotation Yrotation Zrotation
						JOINT LeftArmRoll
						{
							OFFSET 0.000000 -0.000001 6.286865
							CHANNELS 3 Xrotation Yrotation Zrotation
							JOINT LeftForeArm
							{
								OFFSET 0.000000 -0.000003 18.311401
								CHANNELS 3 Xrotation Yrotation Zrotation
								JOINT LeftForeArmRoll
								{
									OFFSET 0.000000 -0.000001 7.054825
									CHANNELS 3 Xrotation Yrotation Zrotation
									JOINT LeftHand
									{
										OFFSET 0.000000 -0.000002 14.157501
										CHANNELS 3 Xrotation Yrotation Zrotation
										End Site
										{
											OFFSET 0.000000 0.000000 0.100006
										}
									}
								}
							}
						}
					}
				}
			}
		}
	}
	JOINT RightUpLeg
	{
		OFFSET -5.666161 0.871611 -1.039032
		CHANNELS 3 Xrotation Yrotation Zrotation
		JOINT RightUpLegRoll
		{
			OFFSET 0.000000 -0.000003 16.600502
			CHANNELS 3 Xrotation Yrotation Zrotation
			JOINT RightLeg
			{
				OFFSET 0.000000 0.000003 -20.557198
				CHANNELS 3 Xrotation Yrotation Zrotation
				JOINT RightLegRoll
				{
					OFFSET 0.000000 -0.000003 20.624397
					CHANNELS 3 Xrotation Yrotation Zrotation
					JOINT RightFoot
					{
						OFFSET 0.000000 -0.000003 17.166405
						CHANNELS 3 Xrotation Yrotation Zrotation
						JOINT RightToeBase
						{
							OFFSET 0.000000 -0.000003 14.350204
							CHANNELS 3 Xrotation Yrotation Zrotation
							End Site
							{
								OFFSET 0.006081 0.801059 6.949707
							}
						}
					}
				}
			}
		}
	}
	JOINT LeftUpLeg
	{
		OFFSET 5.666161 0.871611 -1.039032
		CHANNELS 3 Xrotation Yrotation Zrotation
		JOINT LeftUpLegRoll
		{
			OFFSET 0.000000 -0.000003 16.600601
			CHANNELS 3 Xrotation Yrotation Zrotation
			JOINT LeftLeg
			{
				OFFSET 0.000000 -0.000004 20.557098
				CHANNELS 3 Xrotation Yrotation Zrotation
				JOINT LeftLegRoll
				{
					OFFSET 0.000000 -0.000003 20.815094
					CHANNELS 3 Xrotation Yrotation Zrotation
					JOINT LeftFoot
					{
						OFFSET 0.000000 -0.000003 16.975708
						CHANNELS 3 Xrotation Yrotation Zrotation
						JOINT LeftToeBase
						{
							OFFSET 0.000000 -0.000003 14.350204
							CHANNELS 3 Xrotation Yrotation Zrotation
							End Site
							{
								OFFSET -0.027260 0.801059 6.949707
							}
						}
					}
				}
			}
		}
	}
}
MOTION
Frames: 12
Frame Time: 0.041667
51.348492 -10.789016 85.606209 -3.762172 2.871898 -1.868643 -1.269651 0.115301 -0.093673 1.480511 0.223102 -0.185916 3.125583 0.220896 -0.188625 8.376883 -4.186714 0.086654 3.237491 2.854385 0.335069 -6.165467 -62.304555 -7.532021 -42.197284 -114.561445 -36.951607 0.000001 0.000006 -0.000008 6.100616 -14.909499 0.490066 0.000002 -0.000004 -3.001660 -5.000208 -7.998783 0.000179 -0.564490 54.744198 0.131585 -31.325068 115.857466 28.463213 -0.000003 -0.000004 0.000002 4.369925 10.832370 0.100492 -0.000001 -0.000000 2.999999 -5.000222 7.998754 -0.000142 3.024798 -178.018758 -0.268490 -179.999991 0.000005 -1.108002 175.292270 -2.846379 -0.466307 0.000002 -0.000002 0.040927 69.094890 6.882715 2.129820 25.456960 -7.355615 -0.000000 2.406057 172.084881 -2.121408 -0.000005 -0.000005 -1.027060 -9.770180 1.681763 0.746694 -0.000001 0.000001 -0.138271 72.377302 -6.323093 -3.490823 25.457869 7.355614 -0.001382 
51.350994 -10.788815 85.606697 -3.763479 2.875416 -1.869776 -1.270822 0.115321 -0.093563 1.477041 0.222382 -0.185721 3.122112 0.220177 -0.188426 8.395766 -4.185008 0.093518 3.237880 2.850739 0.341472 -6.161397 -62.311146 -7.527826 -42.197561 -114.554068 -36.944524 0.000003 0.000006 -0.000007 6.095139 -14.907552 0.489061 0.000003 -0.000004 -3.001660 -5.000209 -7.998782 0.000180 -0.552998 54.748447 0.118287 -31.328486 115.851620 28.458945 -0.000003 -0.000004 0.000003 4.356240 10.830368 0.101650 -0.000003 -0.000000 3.000001 -5.000218 7.998754 -0.000143 3.025773 -178.021764 -0.267307 -179.999991 0.000005 -1.108002 175.291013 -2.850362 -0.466699 0.000002 -0.000002 0.040927 69.094467 6.882693 2.129742 25.456964 -7.355616 -0.000000 2.404694 172.077887 -2.130111 -0.000005 -0.000004 -1.027020 -9.775163 1.688125 0.747173 -0.000001 0.000001 -0.138271 72.378374 -6.322793 -3.491616 25.457869 7.355613 -0.001381 
51.356194 -10.789415 85.607002 -3.764627 2.878985 -1.870893 -1.272041 0.115350 -0.093434 1.473461 0.221612 -0.185522 3.118533 0.219407 -0.188221 8.415147 -4.183028 0.100403 3.237829 2.846876 0.347879 -6.157589 -62.317444 -7.523910 -42.198217 -114.546828 -36.937854 0.000003 0.000005 -0.000008 6.088953 -14.905530 0.487962 -0.000000 -0.000004 -3.001660 -5.000208 -7.998783 0.000179 -0.540786 54.753013 0.104155 -31.332175 115.844735 28.455304 -0.000004 -0.000004 0.000003 4.342570 10.828765 0.102764 -0.000001 -0.000000 2.999999 -5.000217 7.998753 -0.000144 3.026610 -178.023758 -0.266103 -179.999991 0.000005 -1.108001 175.289729 -2.854346 -0.467090 0.000001 -0.000001 0.040927 69.093941 6.882701 2.129676 25.456960 -7.355615 0.000000 2.403116 172.069882 -2.138866 -0.000005 -0.000004 -1.026980 -9.780148 1.694495 0.747662 -0.000002 0.000001 -0.138271 72.379351 -6.322524 -3.492419 25.457870 7.355614 -0.001382 
51.353592 -10.790716 85.633202 -3.765672 2.882593 -1.872003 -1.273302 0.115387 -0.093291 1.469790 0.220805 -0.185320 3.114871 0.218600 -0.188013 8.434887 -4.180876 0.107304 3.237457 2.842853 0.354293 -6.153953 -62.323523 -7.520175 -42.197581 -114.540394 -36.929836 0.000003 0.000006 -0.000009 6.082282 -14.903616 0.486832 0.000002 -0.000004 -3.001660 -5.000208 -7.998784 0.000179 -0.528062 54.757657 0.089430 -31.335474 115.837741 28.451385 -0.000003 -0.000003 0.000002 4.328906 10.827360 0.103857 -0.000003 -0.000000 3.000000 -5.000218 7.998753 -0.000145 3.027343 -178.026763 -0.264976 -179.999991 0.000005 -1.108002 175.288459 -2.859324 -0.466566 0.000002 -0.000001 0.040927 69.093415 6.882708 2.129611 25.456960 -7.355615 -0.000000 2.401388 172.062888 -2.147578 -0.000005 -0.000004 -1.026920 -9.785131 1.700865 0.748157 -0.000001 0.000001 -0.138271 72.380204 -6.322230 -3.493325 25.457869 7.355613 -0.001381 
51.348190 -10.779617 85.626396 -3.766644 2.886223 -1.873095 -1.274570 0.115427 -0.093142 1.466091 0.219978 -0.185117 3.111162 0.217774 -0.187804 8.454835 -4.178613 0.114214 3.236894 2.838731 0.360710 -6.150422 -62.329492 -7.516554 -42.198425 -114.533209 -36.923470 0.000003 0.000006 -0.000007 6.075323 -14.901711 0.485658 0.000002 -0.000004 -3.001660 -5.000209 -7.998783 0.000179 -0.515042 54.762514 0.074364 -31.337485 115.831566 28.446155 -0.000003 -0.000003 0.000002 4.315246 10.826155 0.104933 -0.000002 -0.000000 3.000000 -5.000218 7.998753 -0.000145 3.028019 -178.029741 -0.263864 -179.999991 0.000005 -1.108002 175.287188 -2.863307 -0.466958 0.000002 -0.000002 0.040927 69.092992 6.882683 2.129534 25.456960 -7.355615 0.000000 2.399577 172.054883 -2.156330 -0.000005 -0.000005 -1.026860 -9.790117 1.707256 0.748659 -0.000003 0.000001 -0.138271 72.381051 -6.321937 -3.494332 25.457869 7.355614 -0.001381 
51.345592 -10.784317 85.605797 -3.767610 2.889861 -1.874197 -1.275864 0.115468 -0.092991 1.462370 0.219146 -0.184914 3.107441 0.216940 -0.187594 8.474846 -4.176319 0.121125 3.236292 2.834580 0.367127 -6.146932 -62.335469 -7.512975 -42.197800 -114.526761 -36.915502 0.000003 0.000007 -0.000009 6.068293 -14.899803 0.484485 0.000002 -0.000004 -3.001660 -5.000212 -7.998783 0.000180 -0.501941 54.767267 0.059202 -31.340378 115.824476 28.441972 -0.000002 -0.000004 0.000003 4.301595 10.825049 0.105996 -0.000003 -0.000000 3.000000 -5.000220 7.998753 -0.000145 3.028686 -178.031763 -0.262702 -179.999991 0.000005 -1.108002 175.285918 -2.867278 -0.466338 0.000002 -0.000002 0.040927 69.092466 6.882690 2.129367 25.456957 -7.355615 -0.000000 2.397741 172.047889 -2.165046 -0.000005 -0.000004 -1.026790 -9.795102 1.713645 0.749164 -0.000002 0.000001 -0.138271 72.381926 -6.321672 -3.495141 25.457867 7.355611 -0.001381 
51.347794 -10.792615 85.616096 -3.768591 2.893480 -1.875300 -1.277141 0.115508 -0.092843 1.458670 0.218322 -0.184711 3.103752 0.216118 -0.187386 8.494754 -4.174066 0.128029 3.235761 2.830478 0.373544 -6.143398 -62.341548 -7.509346 -42.198633 -114.519589 -36.909113 0.000004 0.000006 -0.000009 6.061381 -14.897802 0.483314 0.000001 -0.000004 -3.001660 -5.000213 -7.998783 0.000179 -0.488969 54.772127 0.044193 -31.343475 115.817441 28.437928 -0.000004 -0.000005 0.000003 4.287931 10.823741 0.107078 -0.000003 -0.000000 3.000000 -5.000217 7.998752 -0.000145 3.029372 -178.034741 -0.261587 -179.999991 0.000005 -1.108001 175.284647 -2.872255 -0.466812 0.000001 -0.000002 0.040927 69.091947 6.882735 2.129207 25.456960 -7.355615 -0.000000 2.395941 172.039870 -2.173808 -0.000005 -0.000005 -1.026730 -9.800097 1.720024 0.749666 -0.000000 0.000001 -0.138271 72.382773 -6.321376 -3.496046 25.457869 7.355613 -0.001382 
51.345291 -10.791015 85.610306 -3.769651 2.897079 -1.876409 -1.278382 0.115543 -0.092704 1.455031 0.217523 -0.184511 3.100101 0.215320 -0.187179 8.514426 -4.171933 0.134922 3.235458 2.826485 0.379956 -6.139714 -62.347626 -7.505560 -42.197821 -114.513087 -36.900913 0.000003 0.000006 -0.000008 6.054816 -14.895881 0.482193 0.000003 -0.000004 -3.001660 -5.000208 -7.998783 0.000179 -0.476342 54.776775 0.029580 -31.346771 115.810447 28.434008 -0.000004 -0.000004 0.000003 4.274269 10.822335 0.108170 -0.000003 -0.000000 3.000000 -5.000220 7.998752 -0.000144 3.030128 -178.037746 -0.260456 -179.999991 0.000005 -1.108002 175.283377 -2.876239 -0.466207 0.000002 -0.000002 0.040927 69.091516 6.882709 2.129131 25.456959 -7.355616 0.000000 2.394252 172.031865 -2.182556 -0.000005 -0.000005 -1.026670 -9.805081 1.726404 0.750166 -0.000002 0.000001 -0.138271 72.383736 -6.321079 -3.496948 25.457870 7.355613 -0.001382 
51.345592 -10.781715 85.609795 -3.770849 2.900638 -1.877524 -1.279594 0.115571 -0.092579 1.451470 0.216764 -0.184313 3.096552 0.214560 -0.186976 8.533696 -4.169993 0.141794 3.235507 2.822671 0.386363 -6.135850 -62.354020 -7.501583 -42.198483 -114.505833 -36.894254 0.000002 0.000007 -0.000008 6.048799 -14.893951 0.481132 0.000002 -0.000004 -3.001660 -5.000208 -7.998782 0.000179 -0.464274 54.781221 0.015613 -31.349807 115.804505 28.429501 -0.000003 -0.000004 0.000003 4.260591 10.820626 0.109293 -0.000003 -0.000000 2.999999 -5.000221 7.998752 -0.000144 3.030993 -178.039741 -0.259245 -179.999991 0.000005 -1.108002 175.282093 -2.881216 -0.466682 0.000001 -0.000002 0.040927 69.090997 6.882715 2.129063 25.456960 -7.355615 -0.000000 2.392715 172.024871 -2.191262 -0.000005 -0.000004 -1.026630 -9.810068 1.732773 0.750660 -0.000002 0.000001 -0.138271 72.384699 -6.320781 -3.497845 25.457867 7.355613 -0.001382 
51.347092 -10.788913 85.628395 -3.772202 2.904145 -1.878664 -1.280753 0.115587 -0.092474 1.448031 0.216060 -0.184120 3.093112 0.213856 -0.186778 8.552419 -4.168315 0.148639 3.236040 2.819105 0.392762 -6.131665 -62.360631 -7.497248 -42.200225 -114.497733 -36.888732 0.000000 0.000006 -0.000009 6.043514 -14.891901 0.480140 0.000001 -0.000004 -3.001660 -5.000209 -7.998783 0.000179 -0.452978 54.785367 0.002540 -31.354318 115.797811 28.426412 -0.000003 -0.000005 0.000003 4.246907 10.818520 0.110454 -0.000003 0.000000 2.999999 -5.000217 7.998752 -0.000143 3.032019 -178.042746 -0.258052 -179.999991 0.000005 -1.108002 175.280809 -2.885200 -0.466079 0.000002 -0.000002 0.040927 69.090464 6.882725 2.128997 25.456959 -7.355614 -0.000001 2.391420 172.016853 -2.200002 -0.000005 -0.000004 -1.026600 -9.815042 1.739123 0.751142 -0.000001 0.000001 -0.138271 72.385682 -6.320546 -3.498552 25.457869 7.355613 -0.001381 
51.340591 -10.796316 85.623802 -3.773764 2.907572 -1.879829 -1.281823 0.115591 -0.092394 1.444750 0.215425 -0.183933 3.089831 0.213223 -0.186586 8.570453 -4.166992 0.155453 3.237194 2.815847 0.399152 -6.127152 -62.367659 -7.492578 -42.201635 -114.489482 -36.882745 0.000002 0.000007 -0.000009 6.039193 -14.889826 0.479244 0.000004 -0.000004 -3.001660 -5.000207 -7.998784 0.000179 -0.442669 54.789100 -0.009390 -31.358969 115.792252 28.423031 -0.000003 -0.000004 0.000003 4.233194 10.815916 0.111666 -0.000003 -0.000000 3.000000 -5.000221 7.998752 -0.000145 3.033223 -178.044727 -0.256759 -179.999991 0.000005 -1.108002 175.279525 -2.889183 -0.466472 0.000002 -0.000002 0.040927 69.090041 6.882702 2.129019 25.456962 -7.355616 -0.000000 2.390398 172.009872 -2.208690 -0.000005 -0.000004 -1.026600 -9.820028 1.745452 0.751613 -0.000001 0.000001 -0.138271 72.386768 -6.320308 -3.499256 25.457865 7.355613 -0.001381 
51.348991 -10.790813 85.600998 -3.775598 2.910919 -1.881015 -1.282823 0.115577 -0.092346 1.441660 0.214877 -0.183752 3.086741 0.212673 -0.186402 8.587628 -4.166091 0.162228 3.239105 2.812966 0.405531 -6.122156 -62.374995 -7.487385 -42.204132 -114.480377 -36.877885 0.000002 0.000007 -0.000007 6.036038 -14.887719 0.478490 0.000001 -0.000004 -3.001660 -5.000209 -7.998782 0.000179 -0.433559 54.792433 -0.019935 -31.363542 115.787798 28.419133 -0.000003 -0.000003 0.000002 4.219473 10.812709 0.112937 -0.000004 0.000000 3.000001 -5.000221 7.998752 -0.000144 3.034671 -178.047746 -0.255465 -179.999991 0.000006 -1.108002 175.278254 -2.893167 -0.466866 0.000002 -0.000002 0.040927 69.089508 6.882705 2.129055 25.456960 -7.355615 0.000001 2.389735 172.002864 -2.217377 -0.000005 -0.000005 -1.026620 -9.825004 1.751772 0.752071 -0.000001 0.000001 -0.138271 72.387964 -6.320065 -3.499848 25.457869 7.355614 -0.001381 
